<svg width="24" height="25" viewBox="0 0 24 25" fill="none" xmlns="http://www.w3.org/2000/svg">
<path d="M13 3.7524C15.1627 3.13619 17.5428 3.64662 19.1981 5.30192C20.8534 6.95723 21.3638 9.3373 20.7476 11.5M14.9369 6.46407C15.7093 6.31021 16.5991 6.5767 17.2612 7.23883C17.9233 7.90095 18.1898 8.79065 18.0359 9.5631" stroke="#0F9ED8" stroke-width="1.5" stroke-linecap="round" stroke-linejoin="round"/>
<path d="M15.1653 21.3835C16.0469 21.5388 16.9531 21.5388 17.8347 21.3835C19.2516 21.1338 20.3929 20.1826 20.786 18.9236L20.8694 18.6565C20.956 18.379 21 18.0919 21 17.8034C21 16.5313 19.8623 15.5 18.4589 15.5H14.5411C13.1377 15.5 12 16.5313 12 17.8034C12 18.0919 12.044 18.379 12.1306 18.6565L12.214 18.9236C12.6071 20.1826 13.7484 21.1338 15.1653 21.3835ZM15.1653 21.3835C9.04195 20.2489 4.25108 15.458 3.1165 9.33468M3.1165 9.33468C2.96117 8.45315 2.96117 7.54686 3.1165 6.66532C3.36618 5.24842 4.31744 4.10713 5.57641 3.71402L5.84345 3.63063C6.12103 3.54396 6.40813 3.5 6.69661 3.5C7.96874 3.5 9.00001 4.63768 9 6.04106L9 9.95894C9.00001 11.3623 7.96874 12.5 6.69661 12.5C6.40813 12.5 6.12103 12.456 5.84345 12.3694L5.57641 12.286C4.31744 11.8929 3.36618 10.7516 3.1165 9.33468Z" stroke="#0F9ED8" stroke-width="1.5"/>
</svg>
