<svg width="19" height="19" viewBox="0 0 19 19" fill="none" xmlns="http://www.w3.org/2000/svg">
<g id="Google logo">
<g clip-path="url(#clip0_129_1617)">
<path id="Vector" d="M18.1088 9.69947C18.1088 8.9616 18.0502 8.42314 17.9233 7.86475H9.67578V11.1952H14.5169C14.4193 12.0228 13.8923 13.2693 12.721 14.1068L12.7046 14.2183L15.3123 16.2822L15.493 16.3006C17.1522 14.735 18.1088 12.4316 18.1088 9.69947Z" fill="#4285F4"/>
<path id="Vector_2" d="M9.67577 18.4743C12.0475 18.4743 14.0386 17.6765 15.493 16.3005L12.721 14.1067C11.9792 14.6352 10.9836 15.0042 9.67577 15.0042C7.35281 15.0042 5.38122 13.4387 4.6784 11.2749L4.57538 11.2838L1.86383 13.4277L1.82837 13.5284C3.2729 16.46 6.24007 18.4743 9.67577 18.4743Z" fill="#34A853"/>
<path id="Vector_3" d="M4.67836 11.2749C4.49292 10.7165 4.3856 10.1182 4.3856 9.5C4.3856 8.88174 4.49292 8.28347 4.66861 7.72508L4.6637 7.60616L1.91816 5.42786L1.82834 5.47151C1.23298 6.68804 0.891357 8.05415 0.891357 9.5C0.891357 10.9459 1.23298 12.3119 1.82834 13.5284L4.67836 11.2749Z" fill="#FBBC05"/>
<path id="Vector_4" d="M9.67577 3.99579C11.3253 3.99579 12.4379 4.7237 13.0724 5.332L15.5515 2.85907C14.0289 1.41322 12.0475 0.525757 9.67577 0.525757C6.24007 0.525757 3.2729 2.53997 1.82837 5.47155L4.66864 7.72512C5.38122 5.56132 7.35281 3.99579 9.67577 3.99579Z" fill="#EB4335"/>
</g>
</g>
<defs>
<clipPath id="clip0_129_1617">
<rect x="0.891357" y="0.5" width="17.2174" height="18" rx="8.6087" fill="white"/>
</clipPath>
</defs>
</svg>
