<svg width="20" height="20" viewBox="0 0 20 20" fill="none" xmlns="http://www.w3.org/2000/svg">
<g id="akar-icons:linkedin-box-fill" clip-path="url(#clip0_69_2213)">
<path id="Vector" fill-rule="evenodd" clip-rule="evenodd" d="M0.833008 2.36498C0.833008 1.95876 0.99438 1.56917 1.28162 1.28193C1.56887 0.994687 1.95845 0.833315 2.36467 0.833315H17.633C17.8343 0.832986 18.0337 0.872367 18.2198 0.949204C18.4059 1.02604 18.575 1.13882 18.7174 1.2811C18.8598 1.42337 18.9728 1.59233 19.0498 1.77832C19.1269 1.96431 19.1665 2.16367 19.1663 2.36498V17.6333C19.1666 17.8347 19.1271 18.0341 19.0501 18.2202C18.9732 18.4062 18.8604 18.5753 18.718 18.7177C18.5757 18.8602 18.4067 18.9731 18.2206 19.0501C18.0346 19.1272 17.8352 19.1668 17.6338 19.1666H2.36467C2.16346 19.1666 1.96422 19.127 1.77834 19.05C1.59245 18.973 1.42357 18.8601 1.28133 18.7177C1.13909 18.5754 1.02628 18.4065 0.94936 18.2205C0.872436 18.0346 0.832899 17.8354 0.833008 17.6341V2.36498ZM8.08967 7.82332H10.5722V9.06998C10.9305 8.35332 11.8472 7.70832 13.2247 7.70832C15.8655 7.70832 16.4913 9.13582 16.4913 11.755V16.6066H13.8188V12.3516C13.8188 10.86 13.4605 10.0183 12.5505 10.0183C11.288 10.0183 10.763 10.9258 10.763 12.3516V16.6066H8.08967V7.82332ZM3.50634 16.4925H6.17968V7.70832H3.50634V16.4916V16.4925ZM6.56218 4.84332C6.56722 5.07221 6.52648 5.2998 6.44237 5.51274C6.35826 5.72568 6.23247 5.91968 6.07237 6.08334C5.91227 6.24701 5.72109 6.37704 5.51005 6.46582C5.29902 6.5546 5.07237 6.60033 4.84343 6.60033C4.61448 6.60033 4.38783 6.5546 4.1768 6.46582C3.96576 6.37704 3.77458 6.24701 3.61448 6.08334C3.45438 5.91968 3.32859 5.72568 3.24448 5.51274C3.16036 5.2998 3.11963 5.07221 3.12467 4.84332C3.13457 4.39403 3.32 3.96647 3.64125 3.65222C3.9625 3.33797 4.39403 3.162 4.84343 3.162C5.29282 3.162 5.72435 3.33797 6.0456 3.65222C6.36685 3.96647 6.55228 4.39403 6.56218 4.84332Z" fill="black"/>
</g>
<defs>
<clipPath id="clip0_69_2213">
<rect width="20" height="20" fill="white"/>
</clipPath>
</defs>
</svg>
