<svg width="36" height="36" viewBox="0 0 36 36" fill="none" xmlns="http://www.w3.org/2000/svg">
<g id="tabler:refresh">
<path id="Vector" d="M30 16.5C29.6332 13.8604 28.4086 11.4145 26.515 9.53929C24.6213 7.66405 22.1636 6.46343 19.5205 6.12238C16.8774 5.78133 14.1954 6.31877 11.8878 7.65192C9.58017 8.98506 7.77487 11.04 6.75 13.5M6 7.50005V13.5H12M6 19.5C6.36684 22.1397 7.5914 24.5856 9.48504 26.4608C11.3787 28.3361 13.8364 29.5367 16.4795 29.8777C19.1226 30.2188 21.8046 29.6813 24.1122 28.3482C26.4198 27.015 28.2251 24.9601 29.25 22.5M30 28.5V22.5H24" stroke="white" stroke-width="2" stroke-linecap="round" stroke-linejoin="round"/>
</g>
</svg>
