<svg width="50" height="50" viewBox="0 0 50 50" fill="none" xmlns="http://www.w3.org/2000/svg">
<circle cx="25" cy="25" r="24.5" stroke="#0F9ED8"/>
<path d="M32.5522 15.997C32.3115 16.0145 32.0751 16.071 31.8525 16.1643H31.8495C31.6357 16.249 30.6195 16.6765 29.0745 17.3245L23.538 19.6563C19.5652 21.3288 15.66 22.9758 15.66 22.9758L15.7065 22.9578C15.7065 22.9578 15.4372 23.0463 15.156 23.239C14.9822 23.3496 14.8327 23.4943 14.7165 23.6643C14.5785 23.8668 14.4675 24.1765 14.5087 24.4968C14.5762 25.0383 14.9272 25.363 15.1792 25.5423C15.4342 25.7238 15.6772 25.8085 15.6772 25.8085H15.6832L19.3455 27.0423C19.5097 27.5695 20.4615 30.6985 20.6902 31.4193C20.8252 31.8498 20.9565 32.119 21.1207 32.3245C21.2002 32.4295 21.2932 32.5173 21.405 32.5878C21.4631 32.6216 21.525 32.6483 21.5895 32.6673L21.552 32.6583C21.5632 32.6613 21.5722 32.6703 21.5805 32.6733C21.6105 32.6815 21.6307 32.6845 21.669 32.6905C22.2487 32.866 22.7145 32.506 22.7145 32.506L22.7407 32.485L24.903 30.5163L28.527 33.2965L28.6095 33.3318C29.3647 33.6633 30.1297 33.4788 30.534 33.1533C30.9412 32.8255 31.0995 32.4063 31.0995 32.4063L31.1257 32.3388L33.9262 17.992C34.0057 17.638 34.026 17.3065 33.9382 16.9848C33.8477 16.6592 33.6388 16.3791 33.3525 16.1995C33.112 16.0534 32.8332 15.9828 32.5522 15.997ZM32.4765 17.5345C32.4735 17.5818 32.4825 17.5765 32.4615 17.6673V17.6755L29.6872 31.873C29.6752 31.8933 29.655 31.9375 29.5995 31.9818C29.541 32.0283 29.4945 32.0575 29.2507 31.9608L24.8182 28.5625L22.1407 31.003L22.7032 27.4105L29.9452 20.6605C30.2437 20.383 30.144 20.3245 30.144 20.3245C30.165 19.984 29.6932 20.2248 29.6932 20.2248L20.5612 25.882L20.5582 25.867L16.1812 24.3933V24.3903L16.17 24.388C16.1776 24.3855 16.1852 24.3825 16.1925 24.379L16.2165 24.367L16.2397 24.3588C16.2397 24.3588 20.148 22.7118 24.1207 21.0393C26.1097 20.2015 28.1137 19.3578 29.655 18.7068C30.569 18.322 31.484 17.9395 32.4 17.5593C32.4615 17.5353 32.4322 17.5345 32.4765 17.5345Z" fill="#0F9ED8"/>
</svg>
