<?xml version="1.0" standalone="no"?>
<!DOCTYPE svg PUBLIC "-//W3C//DTD SVG 20010904//EN"
 "http://www.w3.org/TR/2001/REC-SVG-20010904/DTD/svg10.dtd">
<svg version="1.0" xmlns="http://www.w3.org/2000/svg"
 width="1872.000000pt" height="1872.000000pt" viewBox="0 0 1872.000000 1872.000000"
 preserveAspectRatio="xMidYMid meet">
<metadata>
Created by potrace 1.14, written by Peter Selinger 2001-2017
</metadata>
<g transform="translate(0.000000,1872.000000) scale(0.100000,-0.100000)"
fill="#000000" stroke="none">
<path d="M3421 10788 c-21 -33 -53 -91 -69 -123 -9 -16 -19 -32 -23 -35 -5 -3
-15 -22 -23 -42 -13 -30 -13 -38 -1 -54 13 -18 44 -19 909 -20 l895 0 28 22
c28 22 28 22 28 146 l0 123 -866 1 c-859 2 -866 2 -878 -18z"/>
<path d="M6003 10803 c4 -7 -5 -11 -26 -12 -35 -1 -41 -2 -107 -20 -25 -7 -50
-17 -56 -22 -6 -5 -14 -6 -17 -2 -4 3 -7 1 -7 -5 0 -7 -5 -12 -11 -12 -15 0
-111 -69 -122 -87 -5 -7 -14 -10 -20 -7 -7 4 -9 4 -5 -1 4 -4 -4 -19 -18 -32
-14 -12 -21 -23 -17 -23 4 0 1 -6 -8 -13 -9 -7 -18 -16 -20 -22 -2 -5 -7 -9
-11 -8 -4 2 -5 -3 -2 -11 3 -7 -2 -21 -11 -30 -9 -9 -13 -16 -9 -16 5 0 3 -5
-4 -12 -7 -7 -12 -20 -12 -31 0 -11 -4 -15 -12 -11 -7 4 -8 3 -4 -5 4 -6 2
-19 -6 -28 -11 -14 -11 -16 2 -8 12 7 13 6 3 -7 -7 -8 -10 -18 -6 -21 3 -4 1
-7 -5 -7 -7 0 -11 -3 -11 -7 1 -5 0 -10 -1 -13 -1 -3 -3 -16 -5 -30 -2 -25
-14 -112 -18 -140 -2 -8 -7 -21 -11 -29 -5 -8 -5 -12 0 -9 5 4 9 -63 9 -158 0
-90 2 -164 5 -164 3 0 6 -8 7 -17 1 -17 3 -29 18 -113 4 -19 11 -43 16 -52 5
-10 7 -18 3 -18 -3 0 -1 -6 5 -13 6 -8 8 -17 4 -20 -3 -4 -1 -7 6 -7 8 0 11
-8 8 -20 -3 -11 -1 -18 4 -14 8 5 11 -3 8 -23 0 -3 7 -10 16 -15 13 -8 14 -12
4 -24 -8 -10 -8 -14 -1 -12 13 4 63 -62 56 -74 -3 -5 -1 -7 4 -6 5 2 21 -8 34
-22 34 -34 61 -55 82 -63 16 -6 16 -10 5 -25 -13 -16 -12 -16 4 -3 16 13 20
13 28 0 5 -8 9 -10 9 -5 0 5 8 2 18 -6 9 -8 26 -15 37 -16 11 0 34 -3 50 -7
17 -3 46 -9 65 -12 19 -3 40 -9 47 -15 7 -6 14 -5 18 2 8 13 47 9 57 -5 5 -6
8 -5 8 3 0 6 5 12 11 12 5 0 7 -5 4 -11 -4 -6 2 -5 14 3 16 10 25 10 40 1 15
-10 22 -9 31 2 15 18 34 20 24 3 -4 -7 3 -4 16 7 14 12 20 14 15 5 -8 -13 -7
-13 8 -1 14 11 17 11 17 0 1 -9 4 -8 11 4 9 15 13 16 27 5 12 -10 14 -10 8 0
-4 7 -2 12 6 12 7 0 26 7 41 15 19 10 26 10 22 2 -4 -7 1 -3 9 7 9 11 16 16
16 12 0 -5 6 -3 13 3 8 6 18 7 22 3 5 -4 5 -2 1 5 -3 7 2 14 13 18 22 7 52 62
44 82 -3 7 1 21 8 30 8 9 9 14 3 10 -14 -8 -14 131 0 152 6 10 6 12 -2 7 -7
-4 -12 -1 -12 8 0 8 6 17 13 19 10 4 10 6 0 6 -7 1 -13 12 -13 25 0 13 6 27
13 29 10 4 10 6 0 6 -7 1 -13 9 -13 19 0 14 -8 18 -37 17 -21 0 -47 3 -59 6
-11 4 -27 3 -34 -1 -9 -5 -20 -4 -29 3 -12 9 -13 9 -7 -1 7 -12 -18 -13 -39
-1 -5 4 -28 1 -50 -5 l-40 -12 -1 -88 c0 -62 -4 -90 -14 -96 -23 -14 -155 -7
-175 10 -17 13 -18 13 -10 0 5 -9 0 -8 -13 4 -12 11 -22 16 -22 12 0 -4 -11 4
-25 18 -14 14 -25 30 -25 36 0 5 -3 10 -8 10 -12 0 -34 59 -26 71 5 8 3 9 -6
4 -10 -6 -12 -3 -8 13 4 12 2 20 -3 16 -9 -5 -13 15 -12 63 0 12 -3 20 -7 18
-7 -4 -13 61 -10 100 1 11 1 27 0 35 -1 8 -2 39 -3 68 -1 28 -5 52 -10 52 -5
0 -5 6 1 13 5 6 8 29 6 50 -3 28 -1 37 7 31 8 -5 9 -3 3 7 -7 12 -7 33 1 104
1 11 8 19 15 17 11 -3 11 0 0 12 -9 12 -9 16 -1 16 7 0 9 5 6 10 -3 6 -3 16 2
23 4 6 8 18 10 26 1 8 7 17 13 21 7 4 12 11 12 16 0 5 4 8 10 6 5 -1 7 2 3 8
-3 5 1 13 9 16 9 3 13 11 9 17 -4 6 2 8 15 5 16 -4 19 -2 15 10 -5 11 -2 14
11 9 11 -4 15 -3 11 4 -4 6 -1 9 6 8 8 -1 22 1 32 6 9 4 26 5 37 2 11 -3 20 0
20 6 0 7 5 5 10 -3 5 -8 10 -10 10 -4 0 6 13 9 30 6 16 -2 28 -8 25 -12 -3 -4
3 -7 12 -6 13 1 17 -9 19 -42 2 -28 0 -41 -7 -36 -7 4 -7 -1 0 -15 6 -11 9
-32 7 -46 -3 -14 0 -25 5 -25 6 0 7 -4 4 -10 -6 -10 52 -15 118 -10 15 1 35
-4 43 -11 12 -10 13 -9 9 3 -5 12 0 14 19 11 15 -3 23 -10 20 -17 -3 -6 1 -3
9 6 13 16 15 16 31 0 14 -14 17 -14 14 -2 -2 8 3 14 10 12 10 -2 15 17 11 44
0 4 5 11 13 15 7 5 8 9 2 9 -11 0 -12 55 -1 66 4 4 2 13 -4 20 -7 8 -7 14 1
19 7 4 7 12 0 25 -7 13 -7 21 0 25 8 5 8 11 0 20 -8 10 -8 15 0 20 8 5 7 11
-2 22 -15 19 -15 23 4 34 10 7 10 9 1 9 -7 0 -13 8 -13 18 0 17 -54 72 -71 72
-5 0 -9 4 -9 9 0 8 -37 24 -52 22 -5 -1 -8 4 -8 11 0 6 -3 9 -6 6 -3 -4 -22 1
-42 9 -20 8 -38 15 -39 14 -2 0 -4 -1 -5 0 -4 2 -66 8 -113 12 -22 2 -46 6
-52 10 -6 4 -14 3 -17 -2 -7 -11 -25 -9 -45 3 -9 6 -12 5 -8 -1z"/>
<path d="M7220 10803 c0 -4 -21 -8 -48 -8 -26 0 -52 -4 -58 -8 -7 -4 -16 -7
-20 -6 -5 1 -22 -3 -37 -9 -16 -7 -33 -10 -38 -6 -5 3 -9 0 -9 -6 0 -6 -4 -9
-9 -6 -5 4 -11 3 -13 -2 -6 -14 -95 -61 -103 -54 -5 4 -5 2 -2 -5 4 -6 -4 -20
-18 -31 -14 -11 -25 -25 -25 -32 0 -6 -4 -9 -8 -6 -5 3 -19 -15 -31 -39 -12
-25 -27 -45 -32 -45 -5 0 -9 -7 -9 -15 0 -8 -5 -15 -11 -15 -5 0 -8 -3 -6 -8
3 -4 -3 -25 -14 -46 -10 -22 -19 -46 -19 -53 0 -9 -5 -11 -12 -7 -10 6 -10 5
-1 -8 7 -8 9 -18 5 -22 -4 -4 -8 -12 -8 -17 -1 -5 -3 -11 -4 -14 -3 -6 -7 -36
-9 -66 0 -11 -5 -18 -9 -15 -5 3 -7 -14 -6 -37 1 -23 -2 -48 -8 -54 -7 -9 -7
-13 1 -13 7 0 9 -5 6 -11 -9 -13 -9 -234 0 -248 3 -6 0 -11 -7 -11 -8 0 -9 -3
-3 -8 6 -4 10 -24 10 -44 0 -21 3 -38 7 -38 4 0 5 -6 2 -14 -3 -8 0 -24 6 -36
10 -18 9 -24 -1 -31 -12 -7 -12 -9 0 -9 7 0 11 -6 7 -15 -3 -8 -1 -15 4 -15 5
0 7 -9 5 -20 -2 -11 -1 -20 3 -20 7 0 11 -16 14 -57 1 -7 5 -10 10 -7 7 5 12
-19 11 -53 -1 -7 3 -10 8 -7 5 3 9 -4 9 -15 0 -12 5 -21 10 -21 6 0 10 -7 10
-15 0 -8 5 -15 10 -15 6 0 10 -9 10 -20 0 -11 7 -23 15 -26 8 -4 12 -10 9 -15
-3 -5 -2 -8 3 -7 11 3 78 -64 75 -75 -1 -5 2 -6 7 -3 5 4 17 -1 25 -10 9 -9
24 -17 34 -19 10 -1 16 -10 15 -21 -1 -18 -1 -18 12 0 13 17 15 17 21 3 3 -9
10 -14 15 -11 5 3 9 1 9 -5 0 -5 8 -8 18 -6 9 1 21 0 26 -3 12 -7 59 -13 114
-14 23 -1 42 -6 42 -12 0 -6 5 -4 10 4 9 13 11 13 20 0 5 -8 10 -10 10 -3 0 6
13 10 30 9 17 -1 30 2 30 7 0 5 8 3 17 -4 9 -8 14 -9 10 -3 -4 7 2 14 13 17
11 3 18 1 15 -4 -3 -4 7 -2 21 6 15 8 31 12 36 9 4 -3 8 0 8 6 0 7 7 10 15 6
8 -3 15 0 15 5 0 6 9 9 19 6 15 -3 18 -1 14 11 -5 11 -2 14 10 9 9 -3 17 -2
17 4 0 6 5 7 12 3 7 -4 8 -3 4 5 -4 6 0 14 10 18 9 3 30 20 47 37 16 17 33 30
37 29 4 -1 7 5 6 15 0 10 5 16 14 14 8 -2 12 0 7 4 -4 4 0 15 9 25 8 9 17 26
19 36 1 10 8 17 13 16 7 -2 9 4 5 14 -4 11 -3 14 5 9 8 -5 10 -2 6 9 -4 8 -2
21 3 28 6 6 16 33 24 59 7 27 17 44 23 40 6 -3 5 1 -1 10 -7 8 -10 18 -6 22 9
8 15 48 22 129 1 5 6 5 13 1 7 -5 8 -3 3 5 -9 15 -13 81 -5 81 8 0 4 276 -3
308 -4 13 -1 22 6 22 8 0 8 3 -1 9 -8 4 -13 11 -13 15 1 3 0 7 0 9 -1 1 -2 18
-4 37 -1 19 -6 43 -10 53 -4 10 -5 20 -2 23 3 3 -1 17 -8 31 -8 15 -11 31 -8
36 3 6 1 7 -5 3 -7 -4 -13 -1 -13 8 -2 24 -4 29 -17 54 -7 12 -10 22 -7 22 4
0 -1 7 -9 16 -9 8 -13 20 -10 26 4 7 2 8 -4 4 -7 -4 -12 -1 -12 8 0 9 -4 16
-10 16 -5 0 -10 6 -10 14 0 8 -7 17 -16 20 -9 3 -12 11 -8 18 4 7 4 10 0 6 -5
-4 -20 5 -35 20 -37 36 -71 63 -71 56 0 -3 -12 3 -27 14 -16 11 -31 20 -36 21
-4 0 -31 7 -60 16 -28 8 -79 16 -113 18 -33 2 -66 7 -72 11 -7 4 -12 4 -12 -1z
m45 -298 c37 -1 67 -14 59 -26 -3 -5 1 -9 8 -9 17 0 41 -37 33 -51 -4 -5 -3
-8 2 -7 4 2 8 1 9 -2 0 -3 6 -15 13 -28 14 -27 23 -57 24 -89 1 -13 4 -23 8
-23 4 0 6 -18 5 -40 -1 -22 1 -40 6 -40 11 0 6 -23 -7 -32 -6 -5 -6 -8 2 -8
14 0 13 -42 -2 -52 -6 -5 -2 -8 9 -8 15 0 16 -3 6 -15 -10 -12 -10 -15 0 -15
10 0 10 -3 0 -15 -9 -11 -9 -15 -1 -15 9 0 9 -5 1 -20 -6 -11 -7 -20 -2 -20 7
0 8 -33 2 -50 -1 -3 -2 -8 -1 -12 0 -5 -4 -8 -10 -8 -6 0 -3 -7 6 -16 9 -10
12 -20 7 -23 -5 -3 -8 -23 -8 -44 1 -21 -1 -40 -5 -43 -4 -2 -6 -15 -4 -29 1
-14 -1 -28 -6 -31 -4 -2 -5 -12 -2 -21 4 -10 2 -14 -4 -10 -6 4 -9 -3 -8 -16
2 -13 -5 -40 -15 -60 -10 -21 -18 -39 -18 -40 0 -1 -9 -18 -21 -37 -11 -19
-21 -30 -21 -25 0 6 -7 1 -15 -9 -8 -11 -28 -19 -45 -20 -16 -1 -30 -5 -30 -9
0 -4 -9 -3 -20 3 -11 6 -25 8 -30 5 -6 -3 -10 -1 -10 4 0 6 -6 11 -12 11 -14
0 -60 54 -58 66 1 4 -2 10 -7 13 -14 10 -34 62 -28 72 4 5 1 9 -4 9 -6 0 -11
5 -11 11 0 5 4 8 9 4 5 -3 4 7 -4 22 -19 41 -27 105 -12 96 7 -4 6 0 -2 10 -7
9 -11 17 -7 17 3 0 1 11 -4 25 -7 17 -6 25 1 25 8 0 8 4 0 14 -9 10 -9 16 -1
21 8 5 8 10 0 20 -8 9 -8 15 0 20 6 3 7 12 3 18 -12 20 -12 37 0 37 8 0 7 3
-1 9 -8 4 -14 12 -14 16 0 4 6 12 14 16 7 5 8 9 3 9 -6 0 -11 9 -11 20 0 11 4
20 9 20 5 0 4 6 -2 13 -6 8 -8 17 -5 20 4 3 8 21 10 39 2 18 6 51 10 73 3 22
7 47 8 57 1 9 9 24 17 34 12 15 12 16 0 9 -11 -6 -12 -5 -5 6 4 8 9 20 11 28
1 8 5 17 10 20 4 3 9 13 11 21 2 8 8 17 13 18 5 2 7 7 5 10 -2 4 8 18 22 32
14 14 21 18 16 10 -5 -10 -2 -9 8 2 19 21 32 24 23 6 -3 -7 0 -5 7 4 6 9 17
14 22 10 6 -3 24 -6 41 -7z"/>
<path d="M11446 10802 c-2 -4 -20 -9 -40 -10 -19 -1 -56 -9 -82 -17 -26 -8
-52 -11 -57 -8 -6 3 -7 1 -4 -4 6 -10 -27 -27 -45 -24 -5 1 -8 -3 -8 -9 0 -5
-5 -10 -10 -10 -12 0 -28 -12 -70 -52 -15 -15 -30 -24 -33 -22 -2 3 -7 -7 -11
-20 -3 -14 -12 -25 -18 -23 -7 1 -13 -2 -13 -8 -2 -19 -42 -75 -49 -68 -4 4
-4 0 -1 -9 3 -8 -1 -22 -9 -31 -8 -8 -12 -17 -9 -21 3 -3 0 -12 -7 -21 -7 -8
-9 -15 -5 -15 4 0 2 -7 -5 -15 -6 -8 -9 -19 -6 -24 4 -5 2 -12 -4 -16 -6 -4
-8 -11 -5 -16 4 -5 2 -9 -2 -9 -5 0 -10 -17 -11 -37 -2 -21 -6 -39 -11 -41 -4
-1 -5 -17 -3 -34 3 -17 1 -28 -4 -25 -5 3 -9 -6 -9 -19 0 -13 4 -24 9 -24 5 0
4 -6 -1 -12 -5 -7 -8 -25 -7 -41 2 -18 -1 -25 -8 -21 -7 5 -8 2 -3 -6 12 -19
12 -143 0 -159 -8 -11 -7 -13 4 -7 9 6 12 5 9 -5 -3 -8 -1 -24 3 -36 5 -13 5
-23 1 -23 -9 0 -8 -42 1 -57 4 -6 8 -31 9 -57 2 -25 6 -46 10 -46 11 0 5 -23
-7 -32 -6 -4 -2 -8 8 -8 10 0 15 -5 12 -10 -4 -6 -1 -18 7 -27 8 -11 9 -14 1
-10 -8 5 -8 -1 2 -19 8 -15 12 -31 9 -36 -3 -4 0 -8 7 -8 6 0 9 -8 6 -20 -3
-11 -1 -18 3 -15 4 3 16 -15 27 -40 10 -25 21 -45 24 -45 4 0 12 -13 19 -30 7
-16 19 -30 26 -30 13 0 18 -12 15 -32 0 -5 2 -7 7 -7 22 4 34 -3 29 -15 -4
-11 -1 -13 10 -9 11 4 14 2 9 -5 -5 -8 0 -12 13 -12 12 0 21 -7 21 -16 0 -8 5
-12 11 -8 6 3 14 2 18 -5 4 -6 19 -12 33 -13 15 -1 24 -6 22 -10 -3 -4 6 -9
20 -9 43 -2 46 -3 56 -19 5 -8 10 -10 10 -4 0 7 10 9 25 6 15 -2 22 -9 18 -16
-3 -6 0 -6 8 2 7 6 19 12 27 12 8 0 10 -5 6 -12 -6 -10 -5 -10 7 -1 16 13 36
12 58 -1 10 -6 12 -5 7 2 -10 16 7 15 23 0 11 -11 12 -10 6 1 -6 11 -4 13 8 8
9 -3 19 -1 23 5 4 7 9 6 15 -3 5 -8 9 -9 9 -3 0 6 10 11 23 10 12 -1 25 2 28
7 4 5 18 10 33 10 14 0 26 4 26 9 0 6 7 7 16 4 8 -3 13 -2 10 3 -3 5 1 12 10
15 10 4 13 2 9 -7 -4 -6 3 -1 15 13 12 14 18 18 14 10 -4 -8 9 0 28 18 19 18
37 29 41 26 4 -4 7 -2 7 4 0 15 36 52 50 52 5 0 9 6 7 13 -1 6 3 11 10 10 7
-2 10 4 7 12 -4 8 1 17 10 21 9 3 14 10 11 14 -3 5 -1 11 5 15 6 4 7 11 4 17
-5 8 -1 9 10 5 10 -4 15 -3 11 3 -8 13 5 61 16 54 5 -3 6 3 2 12 -5 13 -3 15
7 9 9 -5 11 -4 6 4 -4 6 -2 19 6 28 11 14 11 16 -2 8 -13 -8 -13 -6 -2 8 8 9
11 21 7 27 -3 5 -2 10 3 10 5 0 9 6 10 13 0 6 4 26 7 42 4 17 8 42 8 58 0 15
3 27 6 27 7 0 9 51 10 215 0 147 -3 235 -9 235 -3 0 -6 15 -7 33 -6 69 -7 77
-15 77 -4 0 -8 14 -8 30 0 17 -4 30 -10 30 -5 0 -10 10 -10 23 0 23 -18 63
-58 126 -11 19 -19 38 -17 41 2 4 -7 13 -20 20 -14 7 -25 20 -25 27 0 8 -4 11
-10 8 -5 -3 -10 1 -10 9 0 9 -4 16 -10 16 -5 0 -20 11 -34 25 -14 14 -28 25
-31 25 -22 -1 -25 1 -19 12 4 6 3 8 -4 4 -12 -7 -62 13 -62 26 0 5 -4 7 -9 4
-5 -4 -36 0 -68 7 -32 7 -68 12 -80 11 -13 -1 -23 3 -23 9 0 6 -5 6 -12 1 -15
-11 -38 -11 -55 -1 -6 4 -14 4 -17 -1z m94 -303 c0 -4 7 -6 15 -3 10 4 15 0
15 -12 0 -16 2 -17 10 -4 5 8 10 10 10 4 0 -5 9 -20 20 -32 12 -12 18 -22 14
-22 -3 0 -1 -7 6 -15 7 -8 9 -15 4 -15 -5 0 -3 -4 5 -9 7 -5 14 -21 15 -37 2
-16 7 -38 13 -49 6 -11 9 -28 8 -37 -2 -10 1 -18 7 -18 6 0 4 -7 -3 -17 -8 -9
-9 -14 -3 -10 7 4 11 -10 13 -40 0 -25 4 -49 6 -53 3 -5 1 -11 -5 -15 -6 -4
-7 -12 -3 -18 10 -16 11 -187 1 -181 -4 3 -4 -6 1 -19 6 -14 7 -28 4 -31 -4
-3 -6 -23 -6 -43 0 -21 -2 -42 -5 -47 -3 -5 -7 -30 -9 -55 -2 -25 -9 -48 -16
-53 -6 -4 -9 -8 -4 -8 4 0 1 -15 -7 -34 -8 -19 -12 -37 -8 -40 3 -3 0 -6 -7
-6 -6 0 -16 -11 -21 -25 -5 -14 -17 -25 -25 -25 -9 0 -14 -4 -11 -9 14 -22
-92 -38 -135 -21 -16 7 -29 16 -29 21 0 4 -9 11 -20 14 -11 4 -18 10 -15 15 3
5 -2 15 -10 23 -8 9 -15 25 -15 37 0 12 -4 18 -10 15 -5 -3 -11 3 -11 14 -1
12 -2 29 -2 39 -1 9 -4 19 -8 22 -4 3 -9 36 -13 74 -3 38 -8 71 -11 74 -3 3 0
11 6 18 7 8 7 14 -1 19 -14 9 -13 45 3 45 8 0 9 2 1 8 -16 10 -16 102 -1 121
9 12 9 13 0 7 -13 -7 -13 2 2 153 3 30 8 57 12 60 5 3 8 14 9 24 3 57 5 68 14
62 6 -3 7 1 4 9 -3 9 -1 16 5 16 6 0 10 3 9 8 -6 28 62 109 82 97 5 -3 10 -2
10 4 0 5 15 11 33 13 37 4 57 -1 57 -13z"/>
<path d="M8020 10761 c-8 -6 -18 -8 -22 -5 -11 7 -19 -35 -15 -73 2 -17 1 -37
-4 -44 -4 -7 -4 -20 1 -30 5 -9 6 -19 3 -23 -11 -11 -12 -36 -2 -36 6 0 5 -8
-1 -20 -9 -16 -8 -22 5 -26 8 -3 12 -11 8 -17 -4 -6 -1 -7 7 -2 7 4 16 2 21
-6 7 -12 9 -12 9 0 0 11 3 11 17 0 9 -8 14 -9 10 -3 -4 7 3 12 19 12 18 0 24
-5 20 -15 -3 -8 -1 -11 4 -8 6 3 10 -3 10 -15 0 -14 -4 -19 -12 -14 -10 6 -10
4 0 -8 9 -12 10 -18 2 -23 -7 -5 -8 -11 -1 -19 5 -6 7 -17 3 -23 -4 -6 -7 -38
-6 -72 1 -38 -3 -58 -9 -54 -6 4 -7 1 -2 -7 5 -8 7 -37 6 -64 -2 -28 -4 -67
-5 -86 0 -19 -5 -38 -11 -42 -6 -5 -6 -8 2 -8 12 0 10 -30 -2 -50 -3 -6 -1
-10 6 -10 7 0 8 -4 2 -12 -5 -7 -9 -37 -8 -65 0 -29 -4 -53 -9 -53 -6 0 -5 -5
1 -11 7 -7 8 -20 3 -34 -5 -14 -4 -27 3 -34 7 -7 7 -11 1 -11 -6 0 -10 -30
-10 -75 1 -41 -2 -75 -6 -75 -4 0 -3 -11 1 -24 7 -17 5 -28 -7 -41 -11 -11
-12 -15 -3 -10 9 5 12 4 7 -3 -8 -13 -46 -11 -46 3 0 6 -3 7 -8 0 -10 -14 -32
-17 -32 -5 0 27 -27 -18 -29 -49 -7 -76 -6 -183 2 -188 4 -3 2 -12 -5 -21 -10
-12 -10 -14 0 -8 8 5 12 1 12 -11 0 -14 2 -15 9 -4 7 11 9 11 14 0 4 -11 6
-11 6 -1 1 10 6 10 22 1 16 -8 20 -8 14 1 -6 9 -2 9 14 1 16 -9 21 -9 21 0 0
7 5 8 13 3 11 -8 32 -10 47 -4 20 7 40 7 40 -2 0 -6 6 -5 15 2 12 10 15 10 15
0 0 -10 3 -10 15 0 11 9 15 9 15 1 0 -9 5 -9 20 -1 15 8 20 8 20 -2 0 -8 3 -9
8 -3 4 6 15 11 25 12 13 1 17 -4 12 -15 -5 -13 -2 -12 15 3 15 14 20 15 20 4
0 -9 3 -10 8 -3 4 6 16 10 27 9 19 -1 20 5 20 74 0 42 5 79 10 83 6 5 5 8 -3
8 -9 0 -10 5 -2 19 7 14 7 22 0 26 -8 5 -7 11 1 21 9 11 9 14 0 14 -7 0 -9 5
-6 11 4 6 7 57 7 115 0 70 4 102 11 97 6 -4 7 -1 1 8 -13 20 -14 80 -1 72 6
-4 7 -1 1 8 -12 19 -14 68 -3 75 5 3 6 10 3 16 -10 16 -11 67 -1 61 4 -2 7 1
7 6 0 6 -5 11 -10 11 -7 0 -7 6 0 20 8 14 8 20 0 20 -7 0 -8 6 -1 19 6 10 7
21 4 25 -12 12 -12 36 0 36 8 0 8 3 2 8 -12 9 -16 52 -4 52 5 0 9 5 9 11 0 5
-4 8 -8 5 -4 -2 -8 4 -8 15 0 10 3 19 7 19 9 0 21 -49 14 -60 -3 -4 -1 -10 5
-12 5 -1 11 -17 13 -33 2 -17 7 -37 11 -44 4 -7 8 -28 9 -46 0 -19 5 -32 9
-29 7 4 13 -35 9 -58 0 -5 4 -8 10 -8 8 0 7 -6 -2 -17 -10 -11 -10 -14 -1 -9
12 7 15 0 15 -36 0 -10 4 -18 8 -18 5 0 9 -11 9 -25 0 -14 6 -25 13 -25 8 0 7
-4 -3 -10 -10 -6 -11 -10 -2 -10 7 0 12 -12 12 -28 0 -16 3 -32 7 -36 17 -17
30 -75 19 -87 -8 -9 -8 -10 3 -4 11 6 13 4 8 -9 -4 -9 -3 -15 2 -11 5 3 11 0
13 -6 2 -6 20 -12 41 -13 20 0 37 -5 37 -11 0 -5 4 -5 8 1 8 14 54 13 64 -1 5
-7 8 -6 8 1 0 6 16 10 35 9 19 -1 35 2 35 7 0 5 5 6 12 2 6 -4 8 -3 4 4 -3 6
0 17 8 25 11 11 12 17 3 26 -8 8 -8 11 1 11 7 0 12 9 12 19 0 11 4 22 10 26 5
3 7 12 3 20 -3 10 1 15 13 15 15 0 16 2 5 9 -8 6 -10 14 -5 22 5 8 10 23 11
34 2 11 7 21 12 23 5 2 7 12 4 22 -3 12 0 20 6 20 7 0 9 5 6 10 -3 6 0 10 7
10 9 0 9 3 -2 10 -12 8 -12 10 -1 10 8 0 12 3 8 6 -3 4 0 22 8 40 8 19 11 34
8 34 -3 0 0 7 7 15 7 8 9 15 4 15 -5 0 0 7 10 15 11 9 14 15 7 15 -13 0 -6 40
9 50 4 3 6 13 4 23 -1 9 4 24 13 32 9 9 10 15 3 15 -6 0 -8 4 -5 10 3 5 8 20
10 31 7 37 12 31 12 -13 0 -24 -5 -49 -11 -57 -6 -9 -7 -12 -1 -9 7 4 11 -10
11 -37 1 -30 -2 -42 -10 -38 -8 5 -8 3 -1 -8 12 -16 13 -108 1 -127 -4 -7 -4
-12 1 -12 12 0 10 -124 -2 -132 -7 -5 -7 -8 0 -8 7 0 10 -51 10 -141 0 -77 3
-143 8 -146 4 -2 2 -13 -3 -24 -8 -13 -7 -19 0 -19 7 0 8 -5 3 -12 -11 -18
-10 -32 1 -40 6 -4 5 -13 -3 -22 -11 -12 -11 -16 -1 -16 9 0 10 -3 1 -13 -6
-8 -7 -17 -3 -21 4 -4 8 -12 8 -17 1 -5 2 -13 3 -19 0 -5 8 -10 17 -10 8 0 13
-3 11 -7 -7 -10 54 -10 71 0 7 5 12 3 12 -5 0 -8 3 -9 8 -3 10 15 35 12 50 -5
8 -8 11 -9 7 -2 -7 13 -8 13 53 16 24 1 42 -2 42 -8 0 -7 3 -8 8 -1 9 12 35
13 43 1 4 -5 13 -5 20 0 7 4 32 8 56 10 24 1 47 5 51 9 4 3 7 46 7 93 1 48 5
93 9 101 6 9 5 12 -2 7 -7 -4 -10 3 -8 22 3 17 -1 29 -7 30 -21 2 -42 7 -53
15 -6 3 -14 3 -18 0 -9 -10 -36 -13 -37 -5 -1 4 -3 27 -5 52 -2 24 -6 50 -8
57 -3 7 -1 15 5 18 5 4 6 12 2 18 -11 17 -10 31 2 39 7 5 7 8 -1 8 -6 0 -11
28 -13 68 -1 37 -3 92 -5 122 -1 30 -5 61 -9 68 -5 7 -3 12 3 12 8 0 7 6 -1
21 -9 17 -8 20 2 14 8 -6 10 -4 4 5 -5 8 -9 39 -10 70 -1 31 -5 62 -9 68 -4 7
-3 12 2 12 6 0 7 14 2 36 -5 19 -7 47 -5 62 2 15 -1 35 -6 45 -6 9 -6 17 -2
17 4 0 8 15 8 34 0 19 -3 32 -6 30 -10 -6 -4 59 7 79 13 22 24 24 35 5 6 -9 9
-9 9 -1 0 8 13 11 34 9 19 -1 33 1 30 5 -2 4 0 10 6 14 5 3 8 20 5 36 -4 22
-2 28 6 23 8 -5 9 -3 4 7 -14 21 -14 120 -1 112 8 -5 8 -3 0 8 -6 8 -10 22 -9
32 2 9 -5 22 -16 28 -23 12 -89 18 -89 8 0 -9 -20 -6 -37 4 -6 4 -14 3 -18 -3
-4 -7 -12 -7 -26 0 -13 8 -25 7 -39 0 -11 -6 -26 -8 -33 -3 -16 10 -48 10 -71
0 -13 -7 -16 -6 -11 3 6 9 3 9 -12 1 -14 -7 -23 -7 -30 0 -8 8 -13 7 -17 0 -5
-8 -13 -8 -27 0 -15 8 -27 6 -52 -8 -18 -11 -32 -23 -33 -29 0 -5 -6 -21 -12
-35 -6 -15 -16 -46 -22 -70 -7 -24 -15 -48 -18 -54 -4 -5 -7 -12 -7 -15 -1
-21 -32 -98 -45 -108 -10 -9 -11 -11 -1 -6 11 5 13 2 8 -17 -4 -13 -7 -28 -7
-32 0 -5 -5 -5 -11 -1 -8 4 -9 0 -4 -15 3 -11 2 -21 -3 -21 -5 0 -9 -6 -10
-12 -2 -21 -7 -42 -14 -53 -3 -5 -9 -25 -13 -43 -3 -18 -10 -30 -15 -27 -5 3
-7 -6 -4 -20 2 -14 0 -25 -5 -25 -6 0 -8 -7 -5 -15 4 -8 2 -15 -3 -15 -5 0 -9
-8 -10 -17 -1 -19 -10 -75 -13 -83 -2 -3 -2 -9 -1 -13 1 -5 -3 -6 -9 -2 -6 4
-8 16 -4 27 4 15 3 18 -7 13 -9 -6 -11 -3 -6 8 3 10 2 17 -3 17 -5 0 -7 7 -4
15 3 8 2 20 -2 27 -4 7 -9 19 -10 28 -5 28 -10 45 -17 58 -5 6 -5 17 -2 22 3
6 1 10 -4 10 -6 0 -10 3 -9 8 2 12 -14 66 -24 79 -6 7 -8 19 -5 28 4 8 2 17
-4 20 -5 4 -7 11 -4 16 4 5 1 9 -4 9 -6 0 -11 11 -11 25 0 14 -3 25 -7 25 -5
0 -9 10 -9 23 -3 31 -8 51 -16 57 -4 3 -9 17 -12 30 -2 14 -14 51 -25 83 -11
31 -17 57 -14 57 3 0 0 6 -6 13 -6 8 -8 17 -4 20 3 4 2 7 -3 8 -5 0 -18 2 -29
5 -40 8 -85 10 -85 3 0 -9 -20 -6 -37 4 -6 4 -14 3 -18 -3 -4 -7 -12 -7 -26 0
-13 8 -25 7 -39 0 -11 -6 -26 -8 -33 -3 -16 10 -48 10 -71 0 -13 -7 -16 -6
-11 3 6 9 3 9 -13 1 -14 -8 -23 -8 -27 -1 -5 7 -11 8 -19 1 -7 -6 -17 -6 -26
-1 -19 12 -21 12 -40 1z"/>
<path d="M9709 10766 c-3 -3 -22 -6 -43 -8 -22 -1 -41 -9 -45 -18 -4 -8 -7
-67 -7 -130 l1 -114 34 -7 c19 -4 40 -5 48 -2 7 3 13 -1 13 -8 0 -9 3 -10 8
-4 22 30 28 7 30 -111 1 -69 4 -129 7 -134 3 -5 1 -11 -4 -15 -7 -3 -7 -15 -1
-30 5 -13 6 -26 2 -29 -9 -5 -8 -59 2 -74 4 -7 4 -12 -1 -12 -7 0 -9 -400 -2
-484 3 -25 -1 -40 -11 -46 -12 -8 -11 -10 5 -10 l20 -1 -20 -8 c-11 -5 -44 -7
-72 -7 -61 2 -55 16 -57 -139 -1 -92 11 -155 28 -138 10 11 56 9 56 -2 0 -6 3
-7 8 0 10 14 42 15 42 2 0 -8 4 -7 12 1 7 7 17 8 30 1 13 -7 18 -6 18 2 0 7 5
8 13 3 11 -8 32 -10 47 -4 20 7 40 7 40 -2 0 -6 6 -5 15 2 12 10 15 10 15 0 0
-10 3 -10 15 0 11 9 15 9 15 1 0 -9 5 -9 20 -1 15 8 20 8 20 -2 0 -8 3 -9 8
-3 9 13 42 16 42 4 0 -5 12 -4 26 1 18 7 23 7 18 -2 -5 -7 -3 -8 7 -2 21 13
39 14 39 2 0 -6 6 -5 15 2 12 10 15 10 15 -1 0 -9 3 -10 8 -3 9 13 94 12 104
-1 5 -6 8 -6 8 1 0 12 29 12 49 -1 10 -5 12 -4 7 3 -10 16 7 15 23 0 11 -10
13 -10 7 0 -7 12 3 16 37 13 9 -1 17 4 17 11 0 8 3 9 8 3 10 -15 35 -18 26 -4
-5 9 -2 10 9 6 10 -3 17 -2 17 4 0 6 4 8 10 4 5 -3 19 4 30 15 11 11 25 18 30
15 6 -4 10 -1 10 5 0 6 4 9 8 6 5 -3 15 6 22 19 7 13 17 22 22 19 4 -3 8 0 8
5 0 6 7 11 16 11 8 0 13 4 10 8 -3 5 5 20 17 33 12 13 21 27 19 31 -1 5 5 8
13 8 9 0 12 6 9 15 -4 8 -1 15 6 15 6 0 9 4 5 9 -3 6 4 26 15 45 13 25 16 36
7 36 -8 0 -9 2 -1 8 6 4 10 15 8 24 -1 10 1 20 6 23 4 2 6 21 3 41 -3 27 -1
34 9 28 10 -6 10 -5 2 7 -16 20 -23 79 -10 79 6 0 5 4 -3 9 -13 9 -20 27 -23
59 -1 6 -5 12 -10 12 -4 0 -8 6 -8 13 0 17 -90 117 -106 117 -8 0 -14 4 -14 9
0 9 -60 37 -72 33 -5 -1 -8 2 -8 7 0 5 11 12 25 15 16 4 23 11 19 18 -5 8 -2
9 9 5 10 -4 16 -2 14 6 -1 7 6 11 15 11 10 -1 16 2 13 6 -3 5 5 16 17 24 12 9
18 16 13 16 -6 0 -3 5 5 10 8 5 15 15 15 22 1 7 6 12 12 11 6 -1 9 6 6 17 -3
11 -1 20 4 20 5 0 10 14 11 32 2 17 7 37 12 43 6 7 5 16 -2 23 -9 9 -9 12 0
12 9 0 10 5 2 19 -7 13 -7 22 0 26 7 4 7 12 0 25 -7 12 -7 21 0 25 6 4 4 15
-6 30 -9 14 -14 32 -10 40 4 11 2 14 -6 9 -7 -5 -9 0 -6 14 4 12 2 20 -3 17
-4 -3 -11 6 -15 20 -3 14 -10 25 -15 25 -5 0 -9 5 -9 11 0 6 -6 16 -12 23 -7
8 -20 23 -28 35 -8 11 -21 21 -29 21 -8 0 -11 3 -7 7 3 4 -12 15 -34 25 -25
11 -38 23 -34 30 4 6 3 8 -4 4 -6 -3 -32 -1 -59 5 -26 6 -69 12 -95 13 -26 1
-50 5 -54 9 -4 3 -16 1 -28 -5 -11 -6 -23 -10 -26 -9 -3 2 -13 7 -22 12 -12 6
-25 6 -38 -1 -11 -6 -26 -8 -33 -3 -16 10 -48 10 -71 0 -13 -7 -16 -6 -11 3 6
9 3 9 -12 1 -14 -7 -23 -7 -30 0 -8 8 -13 7 -17 0 -5 -8 -13 -8 -27 -1 -11 6
-24 8 -30 5 -16 -10 -59 -13 -64 -5 -3 4 -21 4 -40 0 -19 -4 -37 -4 -40 0 -3
4 -20 4 -39 0 -19 -4 -38 -4 -43 1 -5 5 -11 7 -14 5z m450 -286 c1 12 12 14
51 12 34 -3 48 -8 43 -15 -4 -7 1 -6 10 2 15 12 17 11 17 -5 0 -13 3 -15 8 -7
11 17 50 -10 64 -46 14 -35 27 -111 18 -111 -4 0 -6 -12 -4 -26 3 -32 -5 -56
-17 -48 -5 3 -6 -1 -4 -8 7 -18 -31 -52 -74 -67 -19 -6 -64 -11 -101 -11 -59
0 -68 3 -73 19 -3 11 -2 22 1 26 11 11 10 35 -1 35 -8 0 -7 3 1 9 8 4 14 12
14 16 0 4 -6 12 -14 16 -7 5 -8 9 -3 9 7 0 10 39 9 104 -2 101 -1 105 19 108
12 2 25 -4 29 -12 6 -13 7 -13 7 0z m-10 -602 c11 -10 13 -10 7 0 -4 6 -2 12
3 12 6 0 11 -6 11 -12 0 -8 3 -9 8 -3 12 16 78 13 74 -4 -2 -11 0 -12 10 -4
16 13 48 13 48 0 0 -5 7 -7 15 -3 8 3 15 1 15 -4 0 -6 7 -10 15 -10 8 0 15 -5
15 -11 0 -5 5 -7 11 -3 8 5 10 -1 7 -19 -4 -19 -1 -24 10 -19 10 3 13 1 8 -6
-3 -6 -2 -13 4 -17 5 -3 10 -11 10 -16 0 -6 -6 -7 -12 -3 -10 6 -10 4 -2 -7
13 -17 13 -58 0 -78 -6 -10 -6 -12 2 -7 7 4 12 3 12 -3 0 -5 -5 -13 -10 -16
-6 -4 -8 -11 -5 -16 6 -8 -24 -42 -68 -76 -8 -6 -26 -10 -41 -9 -14 2 -26 0
-26 -4 0 -8 -159 -12 -172 -4 -5 3 -5 11 -1 17 12 20 12 37 0 37 -8 0 -7 3 1
9 8 4 14 12 14 16 0 4 -6 12 -14 16 -7 5 -8 9 -3 9 13 0 13 143 0 152 -7 5 -7
8 0 8 6 0 10 17 9 38 0 20 1 40 3 45 6 11 27 8 42 -5z"/>
<path d="M12837 10762 c-9 -2 -15 -8 -12 -13 4 -5 2 -9 -3 -9 -5 0 -8 -23 -8
-51 1 -28 -2 -53 -7 -56 -4 -2 -4 -10 0 -16 5 -7 8 -34 8 -62 0 -52 16 -78 44
-67 10 4 12 1 6 -9 -6 -11 -5 -12 6 -1 7 6 17 12 22 12 4 0 5 -6 1 -12 -5 -10
-4 -10 6 -1 10 9 18 8 37 -4 22 -15 22 -16 6 -29 -12 -10 -13 -12 -3 -9 13 4
14 -7 10 -80 -3 -47 -2 -85 2 -85 4 0 3 -12 -1 -27 -4 -16 -4 -40 0 -55 4 -16
3 -30 -1 -33 -5 -3 -5 -16 0 -30 6 -15 6 -25 0 -25 -5 0 -5 -12 0 -30 5 -17 5
-32 0 -35 -5 -3 -5 -16 0 -30 7 -18 6 -25 -2 -25 -8 0 -8 -3 -3 -9 6 -6 8 -47
5 -95 -3 -48 -3 -86 0 -86 5 0 4 -92 0 -115 -2 -6 -1 -12 0 -15 1 -3 4 -16 5
-30 1 -14 5 -33 9 -42 4 -9 5 -22 1 -28 -3 -5 -2 -10 4 -10 6 0 8 -7 4 -16 -3
-9 -1 -19 5 -23 5 -3 12 -17 13 -31 2 -14 10 -31 17 -38 7 -8 10 -17 8 -21 -3
-4 4 -14 15 -21 10 -8 19 -20 19 -27 0 -7 5 -13 11 -13 6 0 9 -7 6 -14 -4 -10
-1 -13 7 -10 8 3 20 -4 28 -15 8 -11 26 -25 41 -30 15 -6 27 -16 27 -22 0 -6
7 -9 15 -5 8 3 15 1 15 -4 0 -6 7 -10 16 -10 9 0 12 -5 8 -12 -4 -6 -3 -8 3
-5 5 3 27 1 49 -4 21 -5 56 -11 77 -14 21 -2 42 -7 47 -10 6 -4 10 0 10 7 0
10 2 10 9 -1 5 -7 14 -10 20 -7 6 4 11 1 11 -6 0 -8 3 -9 8 -3 11 15 46 19 36
4 -5 -8 -3 -9 7 -3 23 14 49 15 49 1 0 -8 3 -8 9 2 5 8 19 12 35 9 14 -3 26
-1 26 5 0 6 3 7 7 4 3 -4 13 -1 21 6 13 10 14 9 7 -2 -6 -11 -4 -13 11 -6 10
4 27 8 37 9 9 0 17 4 17 8 0 4 7 4 17 1 11 -4 14 -3 9 5 -5 8 -2 10 8 6 9 -3
16 -1 16 6 0 6 4 9 9 5 5 -3 12 -1 16 5 4 6 11 8 16 5 5 -4 9 -2 9 4 0 6 7 7
17 4 11 -4 14 -3 9 5 -7 11 6 17 27 13 5 -1 6 3 2 8 -7 12 29 33 40 23 5 -4 5
-1 1 6 -5 8 1 16 16 21 13 6 20 10 16 10 -5 1 2 11 15 24 12 12 25 21 29 20 4
-2 4 5 1 14 -4 11 -3 14 6 9 6 -4 10 -4 9 1 -4 16 14 53 23 48 5 -3 6 2 2 11
-4 11 -3 15 4 11 7 -5 9 0 6 13 -3 11 -1 20 4 20 5 0 10 6 10 13 2 37 16 93
25 98 6 4 5 8 -3 11 -12 4 -12 7 0 21 10 13 10 17 1 17 -10 0 -10 3 0 15 9 11
9 15 1 15 -7 0 -9 5 -5 12 4 6 7 26 7 43 0 17 -3 37 -7 43 -4 7 -3 12 3 12 10
0 8 31 -4 49 -3 5 -1 12 5 16 6 4 8 11 4 16 -3 5 0 17 7 25 10 12 9 13 -5 8
-14 -5 -15 -3 -7 19 7 16 6 28 -2 36 -8 8 -8 11 0 11 11 0 10 37 -1 47 -3 3
-1 15 4 28 5 14 5 26 -3 34 -8 8 -8 11 0 11 7 0 10 9 7 23 -8 34 -10 97 -3 97
8 0 5 33 -5 48 -4 6 -3 12 3 12 5 0 8 10 5 23 -8 34 -10 97 -3 97 3 0 5 12 5
27 -1 22 4 27 27 30 21 3 27 1 21 -9 -5 -10 -4 -11 7 0 7 6 17 12 22 12 4 0 5
-6 1 -12 -6 -9 -3 -9 9 1 9 7 23 11 30 8 9 -3 13 2 12 16 -1 12 2 30 6 39 6
10 5 19 -1 23 -5 3 -10 11 -10 16 0 6 4 7 10 4 6 -4 6 4 -1 22 -6 15 -11 28
-11 28 -1 0 4 10 10 22 8 14 9 24 2 28 -5 3 -10 11 -10 16 0 6 5 7 10 4 14 -9
8 16 -8 33 -7 8 -9 19 -5 25 5 9 3 9 -8 2 -12 -9 -34 -11 -49 -5 -16 6 -62 5
-66 -2 -3 -5 -11 -5 -17 -1 -16 10 -48 10 -71 0 -13 -7 -16 -6 -11 3 6 9 3 9
-12 1 -14 -7 -23 -7 -30 0 -8 8 -13 7 -17 0 -5 -8 -13 -8 -27 -1 -13 8 -25 7
-39 0 -11 -6 -26 -8 -32 -4 -16 10 -56 11 -71 2 -6 -4 -17 -2 -24 4 -9 7 -13
7 -13 -1 0 -7 -4 -9 -10 -6 -18 11 -49 14 -55 5 -3 -4 -13 -6 -23 -4 -20 5
-44 -37 -31 -57 4 -7 3 -21 -2 -31 -5 -10 -6 -18 -1 -18 10 0 9 -30 -2 -48 -4
-6 -3 -12 2 -12 10 0 9 -30 -1 -47 -4 -6 -3 -14 3 -18 5 -3 10 -14 10 -25 0
-14 5 -17 22 -12 16 4 19 2 13 -9 -6 -11 -5 -12 6 -1 7 6 21 12 31 12 10 0 18
-6 18 -12 0 -9 4 -8 10 2 12 19 12 20 14 -135 2 -71 -1 -137 -5 -146 -5 -9 -5
-20 -1 -24 10 -9 10 -276 1 -296 -5 -9 -5 -20 -1 -24 11 -11 9 -99 -3 -107 -6
-5 -5 -8 4 -8 11 0 11 -3 1 -15 -9 -11 -9 -15 -1 -15 7 0 9 -5 5 -12 -4 -7 -9
-23 -10 -37 -2 -13 -9 -28 -16 -32 -10 -7 -10 -9 0 -9 9 0 10 -5 3 -17 -17
-30 -57 -72 -72 -75 -8 -2 -17 -7 -20 -12 -4 -5 -30 -9 -58 -10 -28 0 -51 -5
-51 -9 0 -4 -10 -2 -22 4 -13 7 -24 12 -25 11 -21 -14 -101 37 -107 68 -2 8
-6 22 -9 30 -12 34 -14 60 -5 66 7 4 4 10 -6 16 -13 7 -14 13 -6 23 8 10 8 15
0 20 -8 5 -8 10 0 20 8 10 8 15 0 20 -8 5 -8 11 1 21 6 8 7 14 2 14 -11 0 -11
29 1 48 4 7 2 12 -5 12 -8 0 -8 4 1 15 10 12 10 15 0 15 -10 0 -10 3 -1 14 9
10 9 16 1 21 -8 5 -8 11 1 21 6 8 7 14 2 14 -11 0 -11 29 1 48 4 7 2 12 -5 12
-8 0 -8 4 1 15 10 12 10 15 0 15 -10 0 -10 3 -1 14 9 10 9 16 1 21 -8 5 -8 11
1 21 6 8 7 14 2 14 -11 0 -11 29 1 48 4 7 2 12 -5 12 -8 0 -8 4 1 15 10 12 10
15 0 15 -10 0 -10 3 -1 14 9 10 9 16 1 21 -8 5 -8 11 1 21 6 8 7 14 2 14 -11
0 -11 29 1 48 4 7 2 12 -5 12 -8 0 -8 4 1 15 9 11 9 15 1 15 -9 0 -9 5 -1 20
6 11 7 20 2 20 -12 0 -6 50 7 63 7 7 16 6 27 -4 13 -10 16 -11 10 -1 -10 16
25 13 36 -3 5 -6 8 -5 8 3 0 6 7 12 15 12 8 0 15 7 15 16 0 9 5 12 13 8 8 -5
8 -2 -2 9 -11 14 -11 17 0 17 9 0 10 3 3 8 -6 4 -10 46 -9 105 1 53 -1 97 -4
98 -3 0 -15 3 -26 5 -38 9 -75 10 -75 3 0 -9 -20 -6 -37 4 -6 4 -14 3 -18 -3
-4 -7 -12 -7 -26 0 -13 8 -25 7 -39 0 -11 -6 -26 -8 -32 -4 -16 10 -56 11 -71
2 -6 -4 -17 -2 -24 4 -9 7 -13 7 -13 -1 0 -8 -6 -9 -17 -3 -21 10 -33 10 -51
-2 -7 -4 -19 -3 -27 4 -9 7 -15 8 -20 0 -4 -7 -12 -7 -26 0 -13 8 -25 7 -40 0
-12 -7 -25 -8 -32 -2 -7 4 -20 7 -30 4z"/>
<path d="M14395 10760 c-11 -4 -26 -5 -32 -3 -12 5 -19 -23 -14 -51 1 -5 -4
-13 -11 -17 -7 -5 -8 -9 -3 -9 12 0 14 -115 3 -126 -4 -4 -4 -12 0 -18 11 -18
9 -176 -3 -176 -7 0 -7 -3 0 -8 6 -4 12 -18 13 -32 2 -14 8 -27 13 -28 5 -2 6
-9 2 -15 -4 -7 1 -6 10 2 12 9 17 10 17 2 0 -8 5 -9 19 -1 14 7 22 7 27 -1 4
-8 9 -7 15 2 6 10 9 10 9 2 0 -9 7 -10 25 -3 16 6 26 6 31 -1 4 -8 9 -7 15 2
7 12 9 12 9 0 0 -11 3 -11 15 -1 12 10 15 10 15 -1 0 -11 2 -11 10 1 5 8 10
12 10 8 0 -5 8 0 18 10 12 11 14 20 8 24 -8 5 -7 14 1 27 8 13 9 22 2 26 -5 4
-6 12 -2 18 5 7 8 23 7 37 -1 26 0 26 78 25 47 0 78 3 78 10 0 5 5 3 10 -5 5
-8 10 -10 10 -5 0 6 5 3 10 -5 7 -11 10 -11 10 -2 0 7 4 11 9 7 5 -3 12 -1 16
4 3 6 12 8 20 6 8 -3 22 -7 31 -10 8 -3 12 -10 9 -15 -5 -8 -11 -8 -20 0 -9 8
-15 8 -20 0 -4 -6 -1 -9 7 -8 7 2 13 -6 13 -17 0 -11 -6 -19 -13 -17 -8 1 -11
-2 -6 -9 4 -7 -1 -18 -11 -26 -11 -7 -15 -13 -11 -13 4 0 -1 -12 -12 -27 -10
-16 -22 -36 -25 -46 -4 -10 -11 -15 -17 -12 -6 3 -7 -1 -4 -9 3 -9 1 -16 -5
-16 -6 0 -11 -6 -11 -14 0 -8 -6 -21 -14 -28 -7 -8 -17 -24 -20 -36 -4 -13
-12 -19 -18 -16 -6 4 -8 2 -4 -4 3 -6 0 -16 -7 -24 -7 -7 -14 -16 -15 -21 -5
-21 -65 -117 -74 -117 -5 0 -7 -4 -4 -9 4 -5 -5 -23 -19 -40 -15 -16 -25 -31
-24 -33 4 -8 -44 -77 -51 -73 -4 3 -6 -4 -3 -15 4 -14 0 -20 -11 -20 -9 0 -13
-6 -10 -15 4 -8 -1 -17 -10 -21 -9 -3 -14 -10 -11 -14 2 -4 -4 -18 -15 -30
-11 -13 -20 -28 -20 -34 0 -6 -11 -24 -25 -40 -14 -16 -25 -35 -25 -42 0 -7
-3 -14 -7 -16 -5 -1 -19 -23 -32 -48 -14 -25 -29 -48 -35 -52 -7 -5 -7 -8 -1
-8 6 0 11 -16 12 -35 0 -22 -3 -32 -10 -28 -6 4 -7 1 -1 -8 14 -22 14 -70 1
-62 -7 4 -6 -1 2 -10 11 -14 11 -20 0 -34 -10 -11 -10 -14 -1 -9 8 5 12 0 12
-13 0 -12 5 -21 11 -21 5 0 8 -4 5 -9 -7 -11 13 -9 32 2 7 5 12 3 12 -5 0 -9
3 -9 10 2 9 13 10 13 10 0 0 -13 1 -13 10 0 7 11 10 11 10 2 0 -7 5 -10 11 -6
20 12 89 12 89 0 0 -7 3 -7 8 -1 10 14 112 15 112 1 0 -6 5 -4 10 4 7 11 10
11 10 2 0 -8 5 -10 12 -6 19 12 82 12 90 0 5 -7 8 -7 8 2 0 10 5 10 21 1 12
-6 19 -7 16 -2 -4 5 0 10 8 10 8 0 12 -4 9 -9 -3 -4 0 -8 5 -8 6 0 11 5 11 11
0 8 4 9 13 0 8 -6 17 -8 21 -4 12 12 40 12 48 0 6 -9 8 -9 8 1 0 10 5 10 21 1
12 -6 19 -7 16 -2 -4 5 0 10 8 10 8 0 12 -4 9 -9 -3 -4 0 -8 5 -8 6 0 11 5 11
11 0 8 4 9 13 0 8 -6 17 -8 21 -4 12 12 40 12 48 0 6 -9 8 -9 8 1 0 10 5 10
21 1 12 -6 19 -7 16 -2 -4 5 0 10 8 10 8 0 12 -4 9 -9 -3 -4 0 -8 5 -8 6 0 11
5 11 11 0 8 6 7 17 -2 13 -11 17 -11 21 -1 3 10 7 10 20 0 12 -10 14 -10 8 0
-4 6 -2 12 3 12 6 0 11 -5 11 -11 0 -8 4 -8 15 1 8 6 18 9 23 6 5 -3 9 0 10 7
0 7 3 21 6 32 2 11 5 24 5 28 1 5 7 5 14 1 8 -5 8 -2 -2 9 -9 12 -10 17 -2 17
7 0 9 4 6 10 -3 5 -1 29 6 52 12 48 20 84 22 111 1 9 5 17 10 17 4 0 6 4 2 9
-3 5 -1 12 4 16 6 3 7 13 4 21 -3 9 0 20 8 25 12 7 12 9 0 9 -10 0 -11 3 -2
14 15 17 -6 69 -25 62 -7 -3 -15 -2 -18 2 -8 7 -32 12 -63 14 -13 0 -23 3 -23
7 0 3 -10 7 -22 7 -13 1 -48 5 -79 9 l-57 8 -8 -34 c-11 -48 -11 -48 -14 -56
-1 -5 -2 -12 -1 -17 1 -4 -2 -13 -7 -20 -4 -6 -8 -18 -7 -26 1 -18 -15 -31
-29 -22 -15 9 -46 10 -46 1 0 -9 -26 -6 -36 4 -4 4 -13 2 -20 -4 -8 -7 -14 -7
-19 1 -4 6 -12 7 -24 1 -9 -5 -23 -6 -30 -1 -8 4 -26 4 -42 0 -18 -5 -33 -4
-44 4 -15 11 -15 14 2 36 10 14 25 37 32 52 8 15 22 36 32 47 10 10 15 22 12
25 -4 3 0 6 7 6 7 0 11 3 7 6 -5 6 0 15 31 49 7 8 11 15 7 15 -3 0 1 14 10 30
9 17 20 30 25 30 6 0 9 6 7 13 -1 6 4 11 11 9 8 -1 11 2 8 7 -4 5 -2 12 4 16
5 3 10 13 10 22 0 20 35 64 44 55 4 -3 4 1 1 9 -3 9 3 23 14 33 11 10 18 23
15 27 -3 5 2 12 10 15 9 3 14 10 11 14 -3 5 3 13 12 19 10 6 14 11 10 11 -5 0
0 13 9 29 10 17 21 28 26 25 5 -3 7 -2 6 3 -4 15 13 53 22 48 5 -3 12 0 16 6
5 8 3 9 -6 4 -8 -5 -11 -3 -8 6 3 8 10 13 16 12 6 -2 9 3 6 10 -2 7 6 24 18
37 13 14 22 27 22 30 -1 3 2 4 6 3 4 -1 6 5 4 15 -3 9 7 29 21 44 14 15 26 31
26 35 1 5 5 7 10 6 4 -2 5 5 2 14 -5 12 -3 14 8 8 8 -4 11 -5 7 0 -4 4 -1 19
6 34 7 14 12 33 11 41 -1 8 4 21 9 29 8 11 8 13 -2 7 -12 -7 -12 0 -2 49 1 6
2 12 0 15 -9 25 -8 50 2 44 7 -5 8 -3 2 7 -12 20 -14 38 -3 44 11 7 -19 39
-43 48 -10 4 -18 2 -18 -2 0 -10 -19 -9 -37 2 -6 4 -14 3 -18 -3 -4 -7 -12 -7
-26 0 -13 8 -25 7 -40 0 -15 -8 -24 -8 -34 0 -9 8 -15 8 -20 0 -5 -8 -10 -8
-20 0 -10 8 -15 8 -20 0 -5 -8 -10 -8 -20 0 -10 8 -15 8 -20 0 -4 -6 -12 -7
-18 -3 -15 10 -38 10 -55 -1 -7 -4 -19 -3 -27 4 -9 7 -15 8 -20 0 -4 -7 -12
-7 -26 0 -13 8 -25 7 -40 0 -15 -8 -24 -8 -34 0 -9 8 -15 8 -20 0 -5 -8 -10
-8 -20 0 -10 8 -15 8 -20 0 -5 -8 -10 -8 -20 0 -10 8 -15 8 -20 0 -4 -6 -12
-7 -18 -3 -15 10 -38 10 -55 -1 -7 -4 -19 -3 -27 4 -9 7 -15 8 -20 0 -4 -7
-12 -7 -26 0 -13 8 -25 7 -40 0 -15 -8 -24 -8 -34 0 -9 8 -15 8 -20 0 -4 -7
-11 -8 -18 -2 -7 5 -21 6 -32 2z"/>
<path d="M3222 10451 c-14 -33 -45 -84 -55 -92 -5 -3 -8 -9 -7 -13 0 -3 -15
-33 -35 -67 -43 -74 -50 -99 -32 -123 14 -20 36 -20 993 -21 539 0 993 3 1010
7 62 16 69 34 70 192 l1 142 -967 0 -967 0 -11 -25z"/>
<path d="M15236 10362 c-3 -5 1 -9 9 -9 8 0 12 4 9 9 -3 4 -7 8 -9 8 -2 0 -6
-4 -9 -8z"/>
<path d="M3020 10090 c-4 -3 -40 -61 -80 -130 -40 -69 -78 -128 -84 -132 -6
-4 -7 -8 -2 -8 5 0 4 -6 -2 -12 -21 -27 -24 -77 -6 -95 16 -16 87 -18 1127
-18 878 0 1115 2 1136 13 50 24 55 44 57 220 1 89 -1 163 -5 163 -20 4 -2134
3 -2141 -1z"/>
<path d="M12410 9688 c-11 -4 -20 -5 -20 -1 0 3 -6 0 -13 -6 -8 -6 -17 -8 -20
-4 -4 3 -7 1 -7 -6 0 -7 -4 -10 -8 -7 -5 3 -18 -4 -30 -14 -12 -11 -25 -20
-29 -20 -5 0 -13 -10 -18 -22 -6 -13 -17 -22 -24 -20 -7 1 -10 -2 -6 -8 3 -5
1 -19 -5 -31 -25 -47 -30 -134 -9 -184 7 -16 12 -33 11 -37 -1 -5 3 -8 8 -8 6
0 10 -4 10 -10 0 -24 100 -97 142 -104 7 -1 19 -6 27 -10 8 -5 12 -5 9 0 -4 5
9 9 27 9 19 0 31 -4 27 -10 -3 -5 1 -4 9 2 12 10 18 10 28 0 10 -9 11 -8 5 6
-4 12 -2 16 8 12 14 -6 42 12 90 58 16 15 35 27 41 27 7 0 6 4 -3 10 -10 6
-11 10 -2 10 6 0 12 7 12 16 0 8 4 13 8 10 8 -5 10 5 14 77 1 26 7 47 12 47 7
0 7 3 0 8 -7 4 -14 18 -15 32 -2 14 -7 27 -11 30 -3 3 -8 12 -10 19 -6 27 -83
98 -120 112 -21 7 -38 15 -38 19 0 8 -77 7 -100 -2z"/>
<path d="M2753 9631 c-8 -7 -23 -31 -34 -54 -12 -22 -28 -47 -35 -55 -8 -7
-14 -17 -14 -22 0 -4 -29 -57 -64 -116 -76 -130 -86 -164 -56 -192 20 -19 44
-19 1283 -18 1246 1 1262 1 1289 21 38 29 45 69 44 270 l-1 180 -1199 0 c-996
0 -1202 -2 -1213 -14z"/>
<path d="M4290 8342 c-115 -40 -153 -223 -68 -326 16 -20 33 -35 36 -32 3 3
10 2 16 -3 19 -16 93 -22 137 -11 24 6 50 12 57 12 14 1 26 37 20 62 -3 13 -9
12 -48 -5 -51 -23 -136 -22 -151 2 -5 8 -9 10 -9 4 -1 -18 -34 49 -38 77 l-3
27 73 0 c40 0 98 0 130 0 l56 1 -3 49 c-7 95 -53 144 -140 147 -27 1 -57 -1
-65 -4z m116 -64 c8 -8 18 -29 24 -46 l9 -33 -47 2 c-26 1 -51 0 -57 -1 -30
-7 -93 1 -91 13 11 59 51 90 110 83 21 -2 45 -11 52 -18z"/>
<path d="M4875 8330 c-47 -24 -45 -23 -45 -7 0 8 -12 13 -30 13 -24 0 -30 -4
-30 -20 -1 -37 -1 -390 0 -439 0 -48 0 -48 31 -45 l32 3 -1 73 0 74 26 -8
c118 -33 200 22 220 148 14 89 -15 175 -71 208 -41 25 -83 25 -132 0z m97 -55
c21 -9 41 -56 41 -103 0 -80 -3 -94 -33 -124 -28 -28 -35 -30 -82 -26 -27 3
-54 11 -58 18 -4 7 -8 56 -8 110 l-1 98 40 20 c39 20 67 22 101 7z"/>
<path d="M6013 8324 c-107 -64 -111 -270 -8 -334 59 -37 215 -31 233 8 11 25
9 55 -6 60 -6 2 -12 -1 -12 -7 0 -5 -16 -13 -35 -17 -19 -3 -37 -10 -40 -14
-3 -4 -28 -3 -57 4 -43 9 -56 17 -71 45 -11 18 -21 44 -23 58 -2 24 -1 24 64
23 37 -1 95 -1 130 -1 l62 1 0 39 c0 39 -19 92 -42 122 -34 42 -136 49 -195
13z m142 -44 c17 -11 26 -20 22 -20 -5 0 -5 -6 -1 -12 19 -30 11 -46 -23 -47
-18 -1 -39 -2 -45 -2 -7 -1 -37 0 -66 2 -48 2 -52 4 -46 23 17 63 103 93 159
56z"/>
<path d="M8163 8343 c-18 -2 -33 -10 -34 -16 0 -7 -2 -23 -5 -36 -4 -20 -1
-22 18 -16 13 4 50 9 83 11 66 5 93 -7 100 -45 5 -25 -2 -29 -72 -35 -107 -10
-171 -70 -158 -149 17 -97 101 -128 203 -74 20 11 31 13 30 6 -3 -12 47 -31
56 -21 3 3 6 70 6 150 0 127 -2 149 -20 177 -29 47 -92 62 -207 48z m163 -235
c-1 -44 -5 -54 -29 -72 -58 -43 -137 -20 -137 40 0 48 49 78 136 82 30 1 30 1
30 -50z"/>
<path d="M9225 8342 c-25 -6 -30 -12 -33 -46 -3 -35 -2 -38 12 -27 8 7 43 15
76 18 76 7 110 -8 110 -49 0 -24 -4 -28 -27 -29 -99 -3 -166 -30 -188 -75 -25
-53 -15 -111 24 -146 17 -15 38 -28 46 -29 55 -3 75 0 114 20 34 18 43 19 38
8 -7 -18 8 -25 39 -19 21 4 21 8 20 157 -2 167 -6 180 -66 209 -27 14 -118 18
-165 8z m168 -234 c-1 -56 -7 -66 -41 -80 -61 -25 -106 -15 -122 28 -22 58 37
101 134 100 29 -1 30 -2 29 -48z"/>
<path d="M9768 8337 c-20 -8 -27 -18 -30 -44 -5 -38 -5 -38 28 -17 38 25 121
27 145 3 40 -40 13 -80 -57 -83 -38 -1 -46 -5 -51 -24 -7 -30 -1 -35 50 -37
23 0 51 -7 62 -15 18 -13 20 -23 16 -66 -1 -6 -14 -17 -31 -24 -43 -18 -150
-3 -150 21 0 11 -23 7 -32 -5 -4 -6 -2 -18 3 -28 5 -10 6 -18 2 -18 -13 -1 30
-24 52 -28 55 -12 141 -5 171 12 64 38 73 127 17 163 -23 15 -23 16 -6 34 10
11 23 24 29 31 14 16 5 69 -15 92 -9 10 -27 24 -41 31 -30 15 -124 16 -162 2z"/>
<path d="M12643 8343 c-18 -2 -34 -10 -34 -16 -7 -60 -7 -59 15 -52 11 4 49 9
83 12 53 4 64 2 79 -16 22 -25 26 -51 11 -56 -7 -2 -36 -7 -65 -9 -121 -13
-177 -78 -151 -176 6 -23 57 -70 76 -71 29 -2 57 0 73 4 48 15 60 20 60 28 0
5 5 9 10 9 6 0 9 -5 8 -11 -4 -18 52 -31 59 -14 2 8 3 81 1 162 -3 132 -5 151
-23 169 -37 38 -99 50 -202 37z m163 -235 c-1 -44 -5 -54 -29 -72 -37 -27
-103 -28 -123 -1 -21 29 -14 74 16 95 25 18 49 24 106 27 30 2 30 2 30 -49z"/>
<path d="M13998 8340 c-10 -6 -18 -8 -18 -5 0 5 -12 -3 -44 -32 -8 -7 -22 -34
-32 -60 -21 -56 -27 -62 -58 -56 -22 5 -24 9 -23 75 1 70 1 71 -26 74 -14 1
-30 -2 -33 -8 -6 -10 -7 -279 -1 -337 1 -18 9 -25 25 -26 30 -2 33 7 35 94 1
38 5 73 9 77 4 3 18 4 32 0 19 -5 26 -15 31 -47 7 -42 68 -118 96 -120 96 -8
110 -6 150 23 50 36 71 84 72 164 1 80 -29 143 -81 171 -41 22 -108 29 -134
13z m103 -60 c32 -17 51 -78 46 -143 -7 -80 -37 -116 -97 -116 -63 0 -102 60
-96 149 3 48 27 105 48 113 23 9 79 7 99 -3z"/>
<path d="M14496 8335 c-15 -7 -21 -21 -22 -43 0 -31 0 -31 22 -17 25 16 101
27 132 18 27 -7 42 -42 29 -70 -6 -13 -13 -23 -16 -24 -8 -1 -60 -6 -88 -8
-18 -1 -20 -5 -14 -28 7 -25 12 -28 53 -28 55 -1 78 -17 78 -56 0 -30 -40 -67
-59 -55 -5 4 -12 2 -16 -3 -4 -7 -15 -7 -30 -1 -14 5 -25 7 -25 5 0 -3 -17 3
-39 14 -44 23 -51 20 -45 -17 6 -34 11 -38 54 -49 80 -22 199 4 215 46 20 51
16 80 -16 116 -26 30 -30 38 -18 46 8 5 18 9 22 9 5 0 6 4 2 9 -3 5 -2 12 3
15 16 10 12 64 -8 88 -33 43 -156 61 -214 33z"/>
<path d="M2479 8321 c0 -9 -1 -92 -1 -186 l-1 -170 29 3 c16 2 34 11 41 20 7
9 17 22 23 29 5 7 10 15 10 18 0 4 14 26 30 50 17 24 30 48 30 54 0 6 4 11 9
11 5 0 12 8 15 18 4 9 15 28 26 42 l19 25 0 -128 c0 -70 2 -131 5 -136 3 -4
18 -6 33 -4 l28 5 -2 161 c-1 89 -2 171 -2 183 -1 16 -8 21 -29 21 -21 0 -35
-9 -53 -36 -13 -20 -26 -40 -28 -46 -5 -12 -66 -105 -81 -122 -5 -7 -10 -16
-10 -21 0 -5 -6 -15 -14 -21 -12 -10 -14 5 -14 107 1 65 -2 123 -5 129 -11 17
-57 13 -58 -6z"/>
<path d="M3070 8155 c0 -100 3 -184 6 -187 3 -3 17 -3 32 1 26 7 27 11 28 72
1 35 2 70 2 77 2 8 25 12 82 12 l80 0 1 -32 c0 -18 0 -54 -1 -79 -1 -50 10
-62 45 -49 19 7 20 16 20 185 l0 178 -32 3 -32 4 1 -70 c1 -39 -1 -73 -4 -76
-3 -3 -32 -5 -64 -6 -110 -1 -102 -5 -100 60 4 81 -1 93 -35 90 l-29 -2 0
-181z"/>
<path d="M3629 8326 c0 -6 -2 -18 -4 -28 -2 -12 6 -17 31 -20 19 -2 34 -1 34
2 0 4 14 5 30 2 35 -5 32 7 32 -174 l0 -136 29 -4 c15 -3 30 0 32 6 2 6 3 74
2 151 0 87 3 143 10 147 5 4 33 8 61 8 43 0 53 3 57 20 3 11 0 23 -6 27 -19
13 -307 11 -308 -1z"/>
<path d="M5359 8336 c-1 -1 -2 -83 -3 -183 l-1 -183 32 0 c32 0 32 0 32 53 -1
28 0 64 0 80 l1 27 83 0 83 0 -1 -72 c-2 -83 5 -97 40 -91 l24 5 -2 182 -2
181 -27 1 c-32 1 -34 -4 -33 -83 1 -69 7 -65 -80 -65 -98 0 -90 -6 -90 75 0
72 0 72 -27 73 -16 1 -29 1 -29 0z"/>
<path d="M6477 8314 c-6 -31 9 -44 42 -35 14 4 40 5 56 1 28 -5 30 -8 30 -50
0 -25 -4 -48 -10 -52 -7 -5 -6 -8 0 -8 7 0 10 -37 10 -100 l-1 -101 30 3 31 3
1 148 c1 81 4 151 7 154 3 3 32 5 65 4 62 -1 61 -2 53 49 -1 3 -70 6 -155 6
-153 1 -154 0 -159 -22z"/>
<path d="M7479 8321 c-5 -79 -3 -338 3 -347 5 -6 18 -9 31 -7 23 4 23 7 22
131 -1 70 1 131 3 135 2 4 15 -16 29 -45 50 -107 57 -116 79 -121 19 -3 27 6
53 62 61 128 60 128 60 21 1 -141 0 -161 -2 -174 -2 -10 52 -10 62 0 7 6 4
341 -3 352 -3 5 -21 10 -39 10 -31 0 -35 -4 -72 -81 -39 -84 -42 -89 -44 -108
-2 -23 -22 6 -64 95 -44 92 -44 93 -81 93 -26 0 -36 -5 -37 -16z"/>
<path d="M8696 8331 c-7 -13 -1 -366 7 -363 4 1 17 2 30 2 l23 0 0 153 -1 152
65 2 c108 4 110 4 110 33 l0 25 -115 1 c-64 1 -117 -1 -119 -5z"/>
<path d="M10279 8331 c-5 -41 -2 -349 3 -357 15 -21 56 -2 82 37 14 21 26 43
26 48 0 5 3 11 8 13 4 2 27 36 51 76 24 40 47 75 51 77 5 3 8 -12 8 -32 0 -21
0 -80 1 -130 l1 -93 33 0 32 0 -1 180 c-1 99 -4 183 -7 186 -3 3 -18 3 -34 0
-27 -6 -74 -70 -143 -193 -8 -15 -23 -36 -32 -46 -15 -18 -16 -12 -16 101 0
66 -2 125 -6 130 -6 10 -56 13 -57 3z"/>
<path d="M10884 8332 c-8 -5 -12 -64 -13 -184 -1 -185 1 -194 45 -178 18 7 20
16 18 84 l-1 76 83 0 84 0 1 -42 c1 -24 0 -60 -1 -80 -1 -37 0 -38 32 -38 l33
0 0 183 0 184 -30 -1 -30 -1 -1 -69 c-1 -37 -6 -71 -12 -75 -5 -3 -43 -6 -84
-5 l-73 1 1 69 c0 65 -7 84 -31 84 -5 0 -15 -4 -21 -8z"/>
<path d="M11866 8332 c-10 -17 2 -47 20 -51 24 -4 54 -30 54 -46 0 -7 11 -28
24 -48 l24 -35 -64 -86 c-35 -47 -64 -87 -64 -89 0 -3 14 -7 31 -9 24 -4 34 1
49 21 11 14 24 31 30 38 5 7 10 15 10 18 0 4 7 13 15 21 8 8 20 23 28 34 7 10
19 20 27 22 11 2 14 -13 15 -70 2 -77 11 -94 46 -85 16 5 19 15 19 79 0 108
11 107 90 -9 42 -62 47 -67 83 -67 44 0 46 -7 -35 104 l-57 79 18 26 c9 14 23
41 31 59 9 24 21 35 41 39 24 4 29 11 29 34 0 28 -2 29 -37 23 -21 -3 -43 -12
-49 -20 -6 -8 -16 -14 -21 -14 -5 0 -10 -6 -10 -12 0 -21 -36 -92 -52 -105
-26 -19 -31 -6 -31 77 l0 79 -30 -1 c-34 -1 -33 2 -31 -90 0 -54 -3 -68 -14
-68 -15 0 -50 33 -50 48 -1 19 -37 79 -54 89 -26 16 -78 25 -85 15z"/>
<path d="M13219 8331 c0 -3 -2 -46 -5 -96 -7 -147 -17 -191 -47 -202 -12 -4
-24 -6 -27 -6 -3 1 -6 -12 -6 -28 -2 -26 2 -29 28 -29 30 0 87 48 89 74 0 6 3
20 5 31 3 11 7 60 10 110 3 49 8 92 11 95 2 3 29 5 59 5 66 1 63 8 62 -165 0
-69 1 -130 1 -136 1 -7 15 -14 31 -16 25 -4 30 -1 31 16 3 93 -1 339 -6 344
-8 9 -235 11 -236 3z"/>
<path d="M15019 8336 c-1 -1 -3 -83 -3 -183 l-2 -183 30 0 c28 0 37 9 91 95
33 52 66 106 72 119 33 62 39 50 38 -85 l-1 -129 33 0 33 0 -2 183 -3 182 -28
1 c-19 1 -33 -6 -42 -20 -7 -12 -39 -61 -71 -111 -33 -49 -62 -99 -67 -109 -4
-10 -10 -16 -13 -13 -9 9 -10 178 -2 183 4 3 3 15 -1 27 -5 12 -9 26 -10 32
-1 7 -45 16 -52 11z"/>
</g>
</svg>
